<?xml version="1.0" standalone="no"?>
<!DOCTYPE svg PUBLIC "-//W3C//DTD SVG 20010904//EN"
 "http://www.w3.org/TR/2001/REC-SVG-20010904/DTD/svg10.dtd">
<svg version="1.0" xmlns="http://www.w3.org/2000/svg"
 width="1080.000000pt" height="1080.000000pt" viewBox="0 0 1080.000000 1080.000000"
 preserveAspectRatio="xMidYMid meet">
<metadata>
Created by potrace 1.14, written by Peter Selinger 2001-2017
</metadata>
<g transform="translate(0.000000,1080.000000) scale(0.100000,-0.100000)"
fill="#000000" stroke="none">
<path d="M4659 9626 c-2 -2 -47 -7 -99 -11 -52 -3 -108 -8 -125 -10 -16 -2
-55 -6 -85 -9 -59 -7 -114 -14 -145 -20 -11 -2 -40 -7 -65 -11 -64 -10 -239
-44 -280 -55 -19 -5 -46 -11 -60 -13 -61 -11 -300 -82 -431 -128 -79 -28 -148
-52 -154 -53 -15 -4 -42 -15 -127 -51 -42 -18 -79 -30 -82 -27 -3 3 -6 0 -6
-6 0 -7 -5 -12 -12 -12 -6 0 -63 -25 -125 -55 -63 -30 -117 -55 -121 -55 -4 0
-18 -9 -32 -20 -14 -11 -33 -20 -42 -20 -10 0 -18 -4 -18 -10 0 -5 -5 -10 -11
-10 -14 0 -303 -171 -307 -182 -2 -4 -8 -8 -14 -8 -20 0 -365 -251 -483 -351
-224 -191 -444 -412 -606 -609 -30 -36 -56 -67 -59 -70 -3 -3 -19 -23 -36 -45
-16 -22 -34 -46 -41 -55 -33 -41 -116 -157 -125 -175 -6 -11 -14 -22 -18 -25
-26 -19 -226 -355 -313 -525 -58 -113 -173 -367 -181 -400 -2 -5 -10 -26 -18
-45 -18 -42 -31 -73 -33 -80 0 -3 -21 -63 -44 -135 -44 -130 -56 -170 -91
-300 -18 -68 -54 -222 -64 -278 -2 -15 -7 -35 -10 -45 -3 -9 -7 -33 -10 -52
-3 -19 -7 -44 -10 -55 -2 -11 -7 -40 -10 -65 -3 -25 -8 -56 -11 -70 -4 -22
-11 -88 -20 -175 -27 -272 -27 -798 0 -985 2 -14 7 -54 10 -90 4 -36 9 -74 11
-85 2 -11 7 -40 10 -65 10 -75 63 -336 84 -416 11 -41 22 -84 24 -97 3 -12 5
-22 6 -22 1 0 3 -7 5 -15 1 -8 12 -46 25 -85 12 -38 23 -77 25 -85 8 -35 98
-286 106 -294 5 -6 9 -15 9 -22 0 -6 8 -29 17 -50 9 -22 17 -41 18 -44 7 -26
204 -426 251 -510 20 -36 58 -100 85 -143 27 -43 49 -82 49 -86 0 -5 4 -11 8
-13 9 -3 72 -93 72 -102 0 -3 6 -14 14 -23 8 -10 58 -76 110 -146 53 -71 101
-134 107 -140 5 -7 17 -21 27 -33 132 -161 393 -434 499 -520 21 -18 63 -55
93 -83 30 -28 58 -51 61 -51 3 0 25 -18 50 -40 24 -22 47 -40 50 -40 3 0 15
-8 27 -18 48 -41 61 -50 142 -108 101 -71 241 -163 290 -190 19 -10 37 -22 38
-26 2 -5 10 -8 18 -8 8 0 14 -3 14 -8 0 -4 17 -15 38 -24 20 -10 60 -31 89
-47 102 -58 394 -201 411 -201 3 0 24 -8 46 -19 23 -10 79 -33 126 -51 47 -17
94 -36 105 -40 113 -49 542 -164 724 -195 19 -3 37 -7 40 -9 3 -2 30 -7 60
-11 30 -4 63 -9 75 -11 35 -6 89 -14 146 -19 30 -3 71 -7 90 -10 202 -27 854
-27 985 0 11 2 41 7 68 10 137 15 149 17 242 34 33 6 74 13 90 16 42 7 84 16
150 30 11 3 29 7 40 9 149 33 584 167 613 189 6 5 12 6 12 3 0 -4 12 -1 28 8
15 8 52 24 82 36 113 46 159 67 315 143 88 43 162 83 163 88 2 5 10 9 18 9 34
0 537 326 605 392 8 8 30 25 49 38 19 13 40 29 46 35 6 5 31 26 54 45 52 42
65 54 171 150 132 120 292 284 399 409 25 29 50 58 55 64 15 17 126 158 150
191 11 16 25 33 30 40 18 19 177 256 229 341 76 123 110 186 199 365 109 218
175 374 234 550 13 41 29 84 34 95 21 48 109 373 133 495 3 14 7 36 10 50 9
41 15 73 21 105 3 17 7 39 9 51 5 23 18 118 21 149 1 11 5 40 8 65 26 187 32
299 31 590 0 283 -5 378 -30 580 -3 25 -7 61 -10 80 -2 19 -7 51 -10 70 -4 19
-8 44 -9 55 -2 11 -11 58 -20 105 -9 47 -19 99 -21 115 -3 17 -7 37 -10 45 -3
8 -8 26 -10 40 -7 35 -50 200 -71 267 -9 32 -17 60 -18 63 0 3 -3 10 -6 15 -4
6 -9 23 -13 40 -9 35 -92 267 -111 310 -7 17 -22 53 -33 80 -11 28 -37 86 -58
130 -21 44 -37 83 -36 88 1 4 -3 7 -8 7 -5 0 -9 3 -8 8 2 10 -12 40 -44 95
-15 26 -25 47 -22 47 4 0 2 6 -4 13 -11 13 -43 70 -76 132 -12 22 -23 42 -26
45 -3 3 -31 48 -63 100 -78 127 -81 132 -90 144 -4 6 -35 49 -68 96 -32 47
-69 98 -81 114 -45 58 -119 151 -136 172 -9 11 -30 36 -46 55 -131 158 -363
390 -532 534 -32 28 -66 58 -76 68 -10 9 -20 17 -23 17 -4 0 -33 22 -59 45
-100 93 -510 363 -676 447 -36 18 -67 35 -70 38 -9 9 -173 87 -335 160 -11 5
-56 23 -100 40 -44 18 -89 36 -100 40 -46 20 -315 109 -315 104 0 -2 -9 0 -21
6 -11 6 -28 13 -37 15 -9 2 -70 17 -134 34 -101 26 -224 54 -293 66 -108 20
-217 38 -250 41 -22 2 -53 6 -70 9 -16 2 -64 7 -105 11 -41 3 -86 8 -100 11
-29 6 -636 14 -641 9z"/>
</g>
</svg>
